<svg xmlns="http://www.w3.org/2000/svg" xmlns:xlink="http://www.w3.org/1999/xlink" width="500" zoomAndPan="magnify" viewBox="0 0 375 374.999991" height="500" preserveAspectRatio="xMidYMid meet" version="1.0"><defs><g/><clipPath id="abc7815758"><path d="M 5.945312 2.476562 L 368.945312 2.476562 L 368.945312 204 L 5.945312 204 Z M 5.945312 2.476562 " clip-rule="nonzero"/></clipPath><clipPath id="16d40586f2"><path d="M 28 171 L 347 171 L 347 372.226562 L 28 372.226562 Z M 28 171 " clip-rule="nonzero"/></clipPath><clipPath id="ee7ba0566e"><rect x="0" width="176" y="0" height="314"/></clipPath></defs><g clip-path="url(#abc7815758)"><path fill="#ffffff" d="M 45.046875 151.960938 C 40.125 135.570312 36.347656 118.476562 33.792969 101.089844 C 45.808594 99.308594 59.695312 95.492188 75.152344 89.71875 C 91.976562 83.433594 110.9375 74.761719 131.511719 63.941406 C 156.03125 51.050781 177.273438 37.984375 187.445312 31.546875 C 187.464844 31.558594 187.480469 31.570312 187.5 31.582031 C 187.515625 31.570312 187.535156 31.558594 187.550781 31.546875 C 197.726562 37.984375 218.96875 51.050781 243.484375 63.941406 C 264.058594 74.761719 283.019531 83.433594 299.847656 89.71875 C 315.304688 95.492188 329.191406 99.308594 341.207031 101.089844 C 338.652344 118.476562 334.871094 135.570312 329.949219 151.960938 C 324.648438 169.621094 317.886719 186.914062 309.847656 203.402344 C 355.972656 153.417969 369.050781 78.605469 369.050781 78.605469 L 355.324219 78.441406 C 333.558594 78.1875 299.089844 65.984375 255.648438 43.148438 C 222.007812 25.46875 194.9375 7.589844 194.671875 7.410156 L 187.550781 2.695312 L 187.5 2.730469 L 187.445312 2.695312 L 180.328125 7.410156 C 180.058594 7.589844 152.992188 25.46875 119.351562 43.148438 C 75.90625 65.984375 41.4375 78.1875 19.671875 78.441406 L 5.945312 78.605469 C 5.945312 78.605469 19.027344 153.417969 65.148438 203.402344 C 57.113281 186.914062 50.351562 169.621094 45.046875 151.960938 " fill-opacity="1" fill-rule="nonzero"/></g><g clip-path="url(#16d40586f2)"><path fill="#ffffff" d="M 187.550781 342.886719 C 187.535156 342.875 187.515625 342.863281 187.5 342.851562 C 187.480469 342.863281 187.464844 342.875 187.445312 342.886719 C 108.769531 292.46875 41.621094 191.273438 28.765625 171.898438 C 33.160156 184.429688 38.152344 196.710938 43.695312 208.613281 C 58.964844 241.40625 78.648438 271.964844 102.1875 299.445312 C 123.148438 323.910156 143.375 341.375 156.65625 351.722656 C 171.265625 363.109375 180.933594 368.660156 181.34375 368.890625 L 187.445312 372.378906 L 187.5 372.34375 L 187.550781 372.378906 L 193.65625 368.890625 C 194.0625 368.660156 203.734375 363.109375 218.34375 351.722656 C 231.625 341.375 251.851562 323.910156 272.8125 299.445312 C 296.351562 271.964844 316.03125 241.40625 331.304688 208.613281 C 336.847656 196.710938 341.839844 184.429688 346.234375 171.898438 C 333.378906 191.273438 266.230469 292.46875 187.550781 342.886719 " fill-opacity="1" fill-rule="nonzero"/></g><g transform="matrix(1, 0, 0, 1, 99, 0)"><g clip-path="url(#ee7ba0566e)"><g fill="#ffffff" fill-opacity="1"><g transform="translate(5.163594, 246.512003)"><g><path d="M 85.453125 -188.625 L 150 -22.21875 C 152.644531 -15.519531 155.640625 -11.066406 158.984375 -8.859375 C 162.335938 -6.660156 165.425781 -5.472656 168.25 -5.296875 L 168.25 0 C 164.71875 -0.351562 160.394531 -0.570312 155.28125 -0.65625 C 150.164062 -0.75 145.050781 -0.796875 139.9375 -0.796875 C 133.0625 -0.796875 126.625 -0.75 120.625 -0.65625 C 114.632812 -0.570312 109.785156 -0.351562 106.078125 0 L 106.078125 -5.296875 C 115.078125 -5.640625 120.8125 -7.175781 123.28125 -9.90625 C 125.75 -12.644531 125.21875 -18.515625 121.6875 -27.515625 L 72.484375 -159 L 76.71875 -162.4375 L 30.6875 -42.859375 C 27.863281 -35.804688 26.1875 -29.851562 25.65625 -25 C 25.132812 -20.144531 25.617188 -16.304688 27.109375 -13.484375 C 28.609375 -10.671875 31.164062 -8.644531 34.78125 -7.40625 C 38.40625 -6.175781 42.945312 -5.472656 48.40625 -5.296875 L 48.40625 0 C 43.46875 -0.351562 38.3125 -0.570312 32.9375 -0.65625 C 27.5625 -0.75 22.578125 -0.796875 17.984375 -0.796875 C 13.578125 -0.796875 9.828125 -0.75 6.734375 -0.65625 C 3.648438 -0.570312 0.785156 -0.351562 -1.859375 0 L -1.859375 -5.296875 C 1.671875 -6.171875 5.285156 -8.238281 8.984375 -11.5 C 12.691406 -14.769531 16.046875 -20.375 19.046875 -28.3125 L 81.21875 -188.625 C 81.925781 -188.625 82.628906 -188.625 83.328125 -188.625 C 84.035156 -188.625 84.742188 -188.625 85.453125 -188.625 Z M 117.71875 -76.1875 L 117.71875 -70.90625 L 38.890625 -70.90625 L 41.53125 -76.1875 Z M 117.71875 -76.1875 "/></g></g></g></g></g></svg>