<svg xmlns="http://www.w3.org/2000/svg" xmlns:xlink="http://www.w3.org/1999/xlink" width="500" zoomAndPan="magnify" viewBox="0 0 375 374.999991" height="500" preserveAspectRatio="xMidYMid meet" version="1.0"><defs><g/><clipPath id="77794e06e9"><path d="M 5.945312 2.476562 L 368.945312 2.476562 L 368.945312 204 L 5.945312 204 Z M 5.945312 2.476562 " clip-rule="nonzero"/></clipPath><clipPath id="9c2b51af4f"><path d="M 28 171 L 347 171 L 347 372.226562 L 28 372.226562 Z M 28 171 " clip-rule="nonzero"/></clipPath><clipPath id="f9e3119ead"><rect x="0" width="180" y="0" height="277"/></clipPath></defs><rect x="-37.5" width="450" fill="#ffffff" y="-37.499999" height="449.999989" fill-opacity="1"/><rect x="-37.5" width="450" fill="#ffffff" y="-37.499999" height="449.999989" fill-opacity="1"/><g clip-path="url(#77794e06e9)"><path fill="#000000" d="M 45.035156 151.839844 C 40.117188 135.464844 36.335938 118.386719 33.785156 101.011719 C 45.796875 99.230469 59.679688 95.417969 75.132812 89.648438 C 91.953125 83.367188 110.910156 74.703125 131.476562 63.894531 C 155.984375 51.011719 177.222656 37.957031 187.394531 31.523438 C 187.410156 31.535156 187.429688 31.546875 187.445312 31.558594 C 187.464844 31.546875 187.480469 31.535156 187.5 31.523438 C 197.671875 37.957031 218.90625 51.011719 243.417969 63.894531 C 263.984375 74.703125 282.941406 83.367188 299.761719 89.648438 C 315.214844 95.417969 329.097656 99.230469 341.109375 101.011719 C 338.554688 118.386719 334.777344 135.464844 329.855469 151.839844 C 324.554688 169.488281 317.796875 186.769531 309.761719 203.246094 C 355.871094 153.300781 368.945312 78.542969 368.945312 78.542969 L 355.222656 78.382812 C 333.464844 78.128906 299.007812 65.933594 255.574219 43.117188 C 221.945312 25.449219 194.882812 7.585938 194.617188 7.40625 L 187.5 2.695312 L 187.445312 2.730469 L 187.394531 2.695312 L 180.277344 7.40625 C 180.007812 7.585938 152.949219 25.449219 119.320312 43.117188 C 75.886719 65.933594 41.429688 78.128906 19.667969 78.382812 L 5.945312 78.542969 C 5.945312 78.542969 19.023438 153.300781 65.132812 203.246094 C 57.097656 186.769531 50.339844 169.488281 45.035156 151.839844 " fill-opacity="1" fill-rule="nonzero"/></g><g clip-path="url(#9c2b51af4f)"><path fill="#000000" d="M 187.5 342.617188 C 187.480469 342.605469 187.464844 342.59375 187.445312 342.582031 C 187.429688 342.59375 187.410156 342.605469 187.394531 342.617188 C 108.738281 292.242188 41.609375 191.125 28.757812 171.765625 C 33.152344 184.285156 38.140625 196.558594 43.683594 208.453125 C 58.949219 241.214844 78.625 271.75 102.160156 299.210938 C 123.113281 323.65625 143.332031 341.109375 156.609375 351.449219 C 171.21875 362.824219 180.882812 368.371094 181.292969 368.601562 L 187.394531 372.085938 L 187.445312 372.050781 L 187.5 372.085938 L 193.601562 368.601562 C 194.007812 368.371094 203.675781 362.824219 218.28125 351.449219 C 231.558594 341.109375 251.78125 323.65625 272.734375 299.210938 C 296.269531 271.75 315.941406 241.214844 331.210938 208.453125 C 336.753906 196.558594 341.742188 184.285156 346.136719 171.765625 C 333.28125 191.125 266.152344 292.242188 187.5 342.617188 " fill-opacity="1" fill-rule="nonzero"/></g><g transform="matrix(1, 0, 0, 1, 98, 22)"><g clip-path="url(#f9e3119ead)"><g fill="#000000" fill-opacity="1"><g transform="translate(7.954929, 222.80555)"><g><path d="M 98.390625 0 L 98.390625 -8.546875 C 112.867188 -9.410156 120.109375 -11.664062 120.109375 -15.3125 C 120.109375 -17.050781 119.796875 -18.753906 119.171875 -20.421875 L 105.046875 -58.390625 L 45.9375 -58.390625 C 38.175781 -38.296875 34.296875 -25.160156 34.296875 -18.984375 C 34.296875 -13.128906 42.410156 -9.648438 58.640625 -8.546875 L 58.640625 0 L -4.859375 0 L -4.859375 -8.546875 C 1.617188 -9.023438 6.835938 -10.546875 10.796875 -13.109375 C 14.753906 -15.679688 17.757812 -18.863281 19.8125 -22.65625 C 21.875 -26.457031 29.234375 -44.625 41.890625 -77.15625 L 78.21875 -170.921875 L 87.71875 -170.921875 L 143.859375 -25.515625 C 147.890625 -14.992188 156.15625 -9.335938 168.65625 -8.546875 L 168.65625 0 Z M 75.375 -134.125 L 50.328125 -68.84375 L 100.890625 -68.84375 Z M 75.375 -134.125 "/></g></g></g></g></g></svg>